<svg width="189" height="153" viewBox="0 0 189 153" fill="none" xmlns="http://www.w3.org/2000/svg">
<path d="M11.5315 92.3103C17.8019 92.3103 22.8933 87.3875 22.8933 81.3047C22.8933 75.2219 17.8111 70.2991 11.5315 70.2991C5.25187 70.2991 0.169678 75.2219 0.169678 81.3047C0.169678 87.3875 5.25187 92.3103 11.5315 92.3103Z" fill="#DBFE02"/>
<path d="M29.4106 92.3103C35.6811 92.3103 40.7724 87.3875 40.7724 81.3047C40.7724 75.2219 35.6902 70.2991 29.4106 70.2991C23.131 70.2991 18.0488 75.2219 18.0488 81.3047C18.0488 87.3875 23.131 92.3103 29.4106 92.3103Z" fill="#DBFE02"/>
<path d="M48.7429 92.3103C55.0134 92.3103 60.1047 87.3875 60.1047 81.3047C60.1047 75.2219 55.0225 70.2991 48.7429 70.2991C42.4633 70.2991 37.3811 75.2219 37.3811 81.3047C37.3811 87.3875 42.4633 92.3103 48.7429 92.3103Z" fill="#DBFE02"/>
<path d="M67.8376 92.3103C74.1081 92.3103 79.1994 87.3875 79.1994 81.3047C79.1994 75.2219 74.1172 70.2991 67.8376 70.2991C61.558 70.2991 56.4758 75.2219 56.4758 81.3047C56.4758 87.3875 61.558 92.3103 67.8376 92.3103Z" fill="#DBFE02"/>
<path d="M68.112 92.3103C74.3825 92.3103 79.4738 87.3875 79.4738 81.3047C79.4738 75.2219 74.3917 70.2991 68.112 70.2991C61.8324 70.2991 56.7502 75.2219 56.7502 81.3047C56.7502 87.3875 61.8324 92.3103 68.112 92.3103Z" fill="#DBFE02"/>
<path d="M85.9909 92.3103C92.2614 92.3103 97.3527 87.3875 97.3527 81.3047C97.3527 75.2219 92.2706 70.2991 85.9909 70.2991C79.7113 70.2991 74.6292 75.2219 74.6292 81.3047C74.6292 87.3875 79.7113 92.3103 85.9909 92.3103Z" fill="#DBFE02"/>
<path d="M105.323 92.3103C111.594 92.3103 116.685 87.3875 116.685 81.3047C116.685 75.2219 111.603 70.2991 105.323 70.2991C99.0439 70.2991 93.9617 75.2219 93.9617 81.3047C93.9617 87.3875 99.0439 92.3103 105.323 92.3103Z" fill="#DBFE02"/>
<path d="M124.418 92.3103C130.689 92.3103 135.78 87.3875 135.78 81.3047C135.78 75.2219 130.698 70.2991 124.418 70.2991C118.139 70.2991 113.056 75.2219 113.056 81.3047C113.056 87.3875 118.139 92.3103 124.418 92.3103Z" fill="#DBFE02"/>
<path d="M143.751 92.3103C150.021 92.3103 155.113 87.3875 155.113 81.3047C155.113 75.2219 150.03 70.2991 143.751 70.2991C137.471 70.2991 132.389 75.2219 132.389 81.3047C132.389 87.3875 137.471 92.3103 143.751 92.3103Z" fill="#DBFE02"/>
<path d="M162.845 92.3103C169.116 92.3103 174.207 87.3875 174.207 81.3047C174.207 75.2219 169.125 70.2991 162.845 70.2991C156.566 70.2991 151.484 75.2219 151.484 81.3047C151.484 87.3875 156.566 92.3103 162.845 92.3103Z" fill="#DBFE02"/>
<path d="M68.112 73.6905C74.3825 73.6905 79.4738 68.7676 79.4738 62.6848C79.4738 56.6021 74.3917 51.6792 68.112 51.6792C61.8324 51.6792 56.7502 56.6021 56.7502 62.6848C56.7502 68.7676 61.8324 73.6905 68.112 73.6905Z" fill="#DBFE02"/>
<path d="M85.9909 73.6905C92.2614 73.6905 97.3527 68.7676 97.3527 62.6848C97.3527 56.6021 92.2706 51.6792 85.9909 51.6792C79.7113 51.6792 74.6292 56.6021 74.6292 62.6848C74.6292 68.7676 79.7113 73.6905 85.9909 73.6905Z" fill="#DBFE02"/>
<path d="M105.323 73.6905C111.594 73.6905 116.685 68.7676 116.685 62.6848C116.685 56.6021 111.603 51.6792 105.323 51.6792C99.0439 51.6792 93.9617 56.6021 93.9617 62.6848C93.9617 68.7676 99.0439 73.6905 105.323 73.6905Z" fill="#DBFE02"/>
<path d="M124.418 73.6905C130.689 73.6905 135.78 68.7676 135.78 62.6848C135.78 56.6021 130.698 51.6792 124.418 51.6792C118.139 51.6792 113.056 56.6021 113.056 62.6848C113.056 68.7676 118.139 73.6905 124.418 73.6905Z" fill="#DBFE02"/>
<path d="M143.751 73.6905C150.021 73.6905 155.113 68.7676 155.113 62.6848C155.113 56.6021 150.03 51.6792 143.751 51.6792C137.471 51.6792 132.389 56.6021 132.389 62.6848C132.389 68.7676 137.471 73.6905 143.751 73.6905Z" fill="#DBFE02"/>
<path d="M162.845 73.6905C169.116 73.6905 174.207 68.7676 174.207 62.6848C174.207 56.6021 169.125 51.6792 162.845 51.6792C156.566 51.6792 151.484 56.6021 151.484 62.6848C151.484 68.7676 156.566 73.6905 162.845 73.6905Z" fill="#DBFE02"/>
<path d="M11.5315 73.6905C17.8019 73.6905 22.8933 68.7676 22.8933 62.6848C22.8933 56.6021 17.8111 51.6792 11.5315 51.6792C5.25187 51.6792 0.169678 56.6021 0.169678 62.6848C0.169678 68.7676 5.25187 73.6905 11.5315 73.6905Z" fill="#DBFE02"/>
<path d="M29.4106 73.6905C35.6811 73.6905 40.7724 68.7676 40.7724 62.6848C40.7724 56.6021 35.6902 51.6792 29.4106 51.6792C23.131 51.6792 18.0488 56.6021 18.0488 62.6848C18.0488 68.7676 23.131 73.6905 29.4106 73.6905Z" fill="#DBFE02"/>
<path d="M48.7429 73.6905C55.0134 73.6905 60.1047 68.7676 60.1047 62.6848C60.1047 56.6021 55.0225 51.6792 48.7429 51.6792C42.4633 51.6792 37.3811 56.6021 37.3811 62.6848C37.3811 68.7676 42.4633 73.6905 48.7429 73.6905Z" fill="#DBFE02"/>
<path d="M67.8376 73.6905C74.1081 73.6905 79.1994 68.7676 79.1994 62.6848C79.1994 56.6021 74.1172 51.6792 67.8376 51.6792C61.558 51.6792 56.4758 56.6021 56.4758 62.6848C56.4758 68.7676 61.558 73.6905 67.8376 73.6905Z" fill="#DBFE02"/>
<path d="M10.0781 62.9685V80.9954L136.712 84.0323L134.537 92.7005L96.5941 126.638L107.956 141.15L177.553 76.7808L106.256 13.3413L99.0073 21.7704L137.434 69.2903L122.691 59.9227L10.0781 62.9685Z" fill="#DBFE02"/>
<path d="M88.322 31.9526C92.7552 36.2468 99.9488 36.2468 104.382 31.9526C108.815 27.6584 108.815 20.6902 104.382 16.396C99.9488 12.1017 92.7552 12.1017 88.322 16.396C83.8888 20.6902 83.8888 27.6584 88.322 31.9526Z" fill="#DBFE02"/>
<path d="M100.963 44.1972C105.397 48.4915 112.59 48.4915 117.023 44.1972C121.457 39.903 121.457 32.9348 117.023 28.6406C112.59 24.3464 105.397 24.3464 100.963 28.6406C96.5301 32.9348 96.5301 39.903 100.963 44.1972Z" fill="#DBFE02"/>
<path d="M114.638 57.4436C119.071 61.7378 126.265 61.7378 130.698 57.4436C135.131 53.1493 135.131 46.1812 130.698 41.8869C126.265 37.5927 119.071 37.5927 114.638 41.8869C110.204 46.1812 110.204 53.1493 114.638 57.4436Z" fill="#DBFE02"/>
<path d="M128.138 70.5207C132.572 74.8149 139.765 74.8149 144.198 70.5207C148.632 66.2265 148.632 59.2583 144.198 54.9641C139.765 50.6699 132.572 50.6699 128.138 54.9641C123.705 59.2583 123.705 66.2265 128.138 70.5207Z" fill="#DBFE02"/>
<path d="M141.804 83.7573C146.237 88.0515 153.431 88.0515 157.864 83.7573C162.297 79.4631 162.297 72.4949 157.864 68.2007C153.431 63.9064 146.237 63.9064 141.804 68.2007C137.37 72.4949 137.37 79.4631 141.804 83.7573Z" fill="#DBFE02"/>
<path d="M155.304 96.8352C159.738 101.129 166.931 101.129 171.364 96.8352C175.798 92.5409 175.798 85.5728 171.364 81.2785C166.931 76.9843 159.738 76.9843 155.304 81.2785C150.871 85.5728 150.871 92.5409 155.304 96.8352Z" fill="#DBFE02"/>
<path d="M101.923 18.7773C106.356 23.0715 113.55 23.0715 117.983 18.7773C122.416 14.4831 122.416 7.5149 117.983 3.22067C113.55 -1.07356 106.356 -1.07356 101.923 3.22067C97.4898 7.5149 97.4898 14.4831 101.923 18.7773Z" fill="#DBFE02"/>
<path d="M114.565 31.0317C118.998 35.3259 126.192 35.3259 130.625 31.0317C135.058 26.7375 135.058 19.7693 130.625 15.4751C126.192 11.1808 118.998 11.1808 114.565 15.4751C110.131 19.7693 110.131 26.7375 114.565 31.0317Z" fill="#DBFE02"/>
<path d="M128.239 44.2683C132.672 48.5625 139.866 48.5625 144.299 44.2683C148.732 39.974 148.732 33.0059 144.299 28.7116C139.866 24.4174 132.672 24.4174 128.239 28.7116C123.806 33.0059 123.806 39.974 128.239 44.2683Z" fill="#DBFE02"/>
<path d="M141.731 57.3459C146.164 61.6401 153.358 61.6401 157.791 57.3459C162.224 53.0517 162.224 46.0835 157.791 41.7893C153.358 37.495 146.164 37.495 141.731 41.7893C137.297 46.0835 137.297 53.0517 141.731 57.3459Z" fill="#DBFE02"/>
<path d="M155.405 70.5918C159.838 74.886 167.032 74.886 171.465 70.5918C175.898 66.2975 175.898 59.3294 171.465 55.0351C167.032 50.7409 159.838 50.7409 155.405 55.0351C150.972 59.3294 150.972 66.2975 155.405 70.5918Z" fill="#DBFE02"/>
<path d="M168.906 83.6599C173.339 87.9541 180.533 87.9541 184.966 83.6599C189.399 79.3656 189.399 72.3975 184.966 68.1032C180.533 63.809 173.339 63.809 168.906 68.1032C164.473 72.3975 164.473 79.3656 168.906 83.6599Z" fill="#DBFE02"/>
<path d="M88.322 120.201C92.7552 115.907 99.9488 115.907 104.382 120.201C108.815 124.495 108.815 131.463 104.382 135.758C99.9488 140.052 92.7552 140.052 88.322 135.758C83.8888 131.463 83.8888 124.495 88.322 120.201Z" fill="#DBFE02"/>
<path d="M100.963 107.956C105.397 103.662 112.59 103.662 117.023 107.956C121.457 112.25 121.457 119.218 117.023 123.512C112.59 127.807 105.397 127.807 100.963 123.512C96.5301 119.218 96.5301 112.25 100.963 107.956Z" fill="#DBFE02"/>
<path d="M114.638 94.7099C119.071 90.4157 126.265 90.4157 130.698 94.7099C135.131 99.0042 135.131 105.972 130.698 110.267C126.265 114.561 119.071 114.561 114.638 110.267C110.204 105.972 110.204 99.0042 114.638 94.7099Z" fill="#DBFE02"/>
<path d="M128.138 81.6328C132.572 77.3386 139.765 77.3386 144.198 81.6328C148.632 85.927 148.632 92.8952 144.198 97.1894C139.765 101.484 132.572 101.484 128.138 97.1894C123.705 92.8952 123.705 85.927 128.138 81.6328Z" fill="#DBFE02"/>
<path d="M141.804 68.3957C146.237 64.1015 153.431 64.1015 157.864 68.3957C162.297 72.69 162.297 79.6581 157.864 83.9524C153.431 88.2466 146.237 88.2466 141.804 83.9524C137.37 79.6581 137.37 72.69 141.804 68.3957Z" fill="#DBFE02"/>
<path d="M155.304 55.3183C159.738 51.0241 166.931 51.0241 171.364 55.3183C175.798 59.6126 175.798 66.5807 171.364 70.875C166.931 75.1692 159.738 75.1692 155.304 70.875C150.871 66.5807 150.871 59.6126 155.304 55.3183Z" fill="#DBFE02"/>
<path d="M101.923 133.376C106.356 129.081 113.55 129.081 117.983 133.376C122.416 137.67 122.416 144.638 117.983 148.932C113.55 153.227 106.356 153.227 101.923 148.932C97.4898 144.638 97.4898 137.67 101.923 133.376Z" fill="#DBFE02"/>
<path d="M114.565 121.122C118.998 116.828 126.192 116.828 130.625 121.122C135.058 125.416 135.058 132.384 130.625 136.678C126.192 140.973 118.998 140.973 114.565 136.678C110.131 132.384 110.131 125.416 114.565 121.122Z" fill="#DBFE02"/>
<path d="M128.239 107.885C132.672 103.591 139.866 103.591 144.299 107.885C148.732 112.179 148.732 119.147 144.299 123.441C139.866 127.736 132.672 127.736 128.239 123.441C123.806 119.147 123.806 112.179 128.239 107.885Z" fill="#DBFE02"/>
<path d="M141.731 94.8076C146.164 90.5134 153.358 90.5134 157.791 94.8076C162.224 99.1018 162.224 106.07 157.791 110.364C153.358 114.658 146.164 114.658 141.731 110.364C137.297 106.07 137.297 99.1018 141.731 94.8076Z" fill="#DBFE02"/>
<path d="M155.405 81.5617C159.838 77.2675 167.032 77.2675 171.465 81.5617C175.898 85.856 175.898 92.8241 171.465 97.1184C167.032 101.413 159.838 101.413 155.405 97.1184C150.972 92.8241 150.972 85.856 155.405 81.5617Z" fill="#DBFE02"/>
<path d="M168.906 68.4841C173.339 64.1899 180.533 64.1899 184.966 68.4841C189.399 72.7783 189.399 79.7465 184.966 84.0407C180.533 88.335 173.339 88.335 168.906 84.0407C164.473 79.7465 164.473 72.7783 168.906 68.4841Z" fill="#DBFE02"/>
</svg>
