<svg width="20" height="20" viewBox="0 0 20 20" fill="none" xmlns="http://www.w3.org/2000/svg">
<path d="M15.9816 5.29847C16.369 4.90489 17.0022 4.89992 17.3957 5.28736C17.7893 5.67481 17.7943 6.30795 17.4068 6.70153L8.98847 15.2532C8.60102 15.6468 7.96788 15.6517 7.5743 15.2643C7.18072 14.8769 7.17575 14.2437 7.56319 13.8501L15.9816 5.29847Z" fill="#4E4BD3"/>
<path d="M3.29847 11.0551C2.90489 10.6677 2.89992 10.0345 3.28736 9.64094C3.67481 9.24736 4.30795 9.24239 4.70153 9.62983L8.97736 13.839C9.37094 14.2265 9.37591 14.8596 8.98847 15.2532C8.60102 15.6468 7.96788 15.6517 7.5743 15.2643L3.29847 11.0551Z" fill="#4E4BD3"/>
</svg>
