<svg width="320" height="290" viewBox="0 0 320 290" fill="none" xmlns="http://www.w3.org/2000/svg">
<path d="M159.621 227.13C204.971 227.13 241.734 190.493 241.734 145.299C241.734 100.106 204.971 63.4688 159.621 63.4688C114.271 63.4688 77.5078 100.106 77.5078 145.299C77.5078 190.493 114.271 227.13 159.621 227.13Z" stroke="white" stroke-width="1.5" stroke-miterlimit="10"/>
<path d="M65 145.297H254.247" stroke="#4E4BD3" stroke-width="1.5" stroke-miterlimit="10"/>
<path d="M159.625 51V239.595" stroke="#4E4BD3" stroke-width="1.5" stroke-miterlimit="10"/>
<path d="M92.6797 78.6328L226.524 211.968" stroke="#4E4BD3" stroke-width="1.5" stroke-miterlimit="10"/>
<path d="M226.524 78.6328L92.6797 211.968" stroke="#4E4BD3" stroke-width="1.5" stroke-miterlimit="10"/>
<path d="M68.1406 169.56L251.06 121.039" stroke="#4E4BD3" stroke-width="1.5" stroke-miterlimit="10"/>
<path d="M135.281 54.1797L183.921 236.421" stroke="#4E4BD3" stroke-width="1.5" stroke-miterlimit="10"/>
<path d="M77.75 97.9805L241.493 192.615" stroke="#4E4BD3" stroke-width="1.5" stroke-miterlimit="10"/>
<path d="M207.054 63.707L112.141 226.886" stroke="#4E4BD3" stroke-width="1.5" stroke-miterlimit="10"/>
<path d="M77.5078 192.133L241.734 98.4609" stroke="#4E4BD3" stroke-width="1.5" stroke-miterlimit="10"/>
<path d="M112.578 63.4688L206.622 227.13" stroke="#4E4BD3" stroke-width="1.5" stroke-miterlimit="10"/>
<path d="M68.2812 120.559L250.91 170.042" stroke="#4E4BD3" stroke-width="1.5" stroke-miterlimit="10"/>
<path d="M184.451 54.3242L134.797 236.325" stroke="#4E4BD3" stroke-width="1.5" stroke-miterlimit="10"/>
<path d="M159.624 215.097C198.305 215.097 229.662 183.848 229.662 145.3C229.662 106.753 198.305 75.5039 159.624 75.5039C120.943 75.5039 89.5859 106.753 89.5859 145.3C89.5859 183.848 120.943 215.097 159.624 215.097Z" fill="#BED1FF"/>
<path d="M159.62 195.216C187.284 195.216 209.709 172.867 209.709 145.299C209.709 117.731 187.284 95.3828 159.62 95.3828C131.957 95.3828 109.531 117.731 109.531 145.299C109.531 172.867 131.957 195.216 159.62 195.216Z" fill="#DBFE02"/>
</svg>
