<svg width="320" height="290" viewBox="0 0 320 290" fill="none" xmlns="http://www.w3.org/2000/svg">
<path d="M159.963 234.093C209.096 234.093 248.926 194.225 248.926 145.046C248.926 95.8675 209.096 56 159.963 56C110.83 56 71 95.8675 71 145.046C71 194.225 110.83 234.093 159.963 234.093Z" stroke="white" stroke-width="1.5" stroke-miterlimit="10"/>
<path d="M159.964 208.493C194.971 208.493 223.35 180.087 223.35 145.047C223.35 110.007 194.971 81.6016 159.964 81.6016C124.957 81.6016 96.5781 110.007 96.5781 145.047C96.5781 180.087 124.957 208.493 159.964 208.493Z" fill="#DBFE02"/>
<path d="M159.964 182.334C180.538 182.334 197.217 165.64 197.217 145.046C197.217 124.452 180.538 107.758 159.964 107.758C139.39 107.758 122.711 124.452 122.711 145.046C122.711 165.64 139.39 182.334 159.964 182.334Z" stroke="#4E4BD3" stroke-width="1.5" stroke-miterlimit="10"/>
</svg>
