<svg width="320" height="290" viewBox="0 0 320 290" fill="none" xmlns="http://www.w3.org/2000/svg">
<mask id="mask0_1668_42" style="mask-type:luminance" maskUnits="userSpaceOnUse" x="1" y="55" width="319" height="180">
<path d="M320 55H1V235H320V55Z" fill="white"/>
</mask>
<g mask="url(#mask0_1668_42)">
<path d="M39 199L358 85" stroke="#4E4BD3" stroke-width="1.5" stroke-miterlimit="10"/>
<path d="M38.5 207C43.1944 207 47 203.194 47 198.5C47 193.806 43.1944 190 38.5 190C33.8056 190 30 193.806 30 198.5C30 203.194 33.8056 207 38.5 207Z" fill="#DBFE02"/>
<path d="M98.5 207C118.106 207 134 191.106 134 171.5C134 151.894 118.106 136 98.5 136C78.8939 136 63 151.894 63 171.5C63 191.106 78.8939 207 98.5 207Z" fill="#DBFE02"/>
<path d="M227.368 206.859C264.765 206.859 295.081 176.638 295.081 139.359C295.081 102.08 264.765 71.8594 227.368 71.8594C189.972 71.8594 159.656 102.08 159.656 139.359C159.656 176.638 189.972 206.859 227.368 206.859Z" fill="#DBFE02"/>
</g>
</svg>
