<svg width="320" height="290" viewBox="0 0 320 290" fill="none" xmlns="http://www.w3.org/2000/svg">
<mask id="mask0_1668_7" style="mask-type:luminance" maskUnits="userSpaceOnUse" x="62" y="53" width="197" height="184">
<path d="M259 53H62V237H259V53Z" fill="white"/>
</mask>
<g mask="url(#mask0_1668_7)">
<path d="M174.699 212.726C218.716 212.726 254.398 177.107 254.398 133.17C254.398 89.2319 218.716 53.6133 174.699 53.6133C130.682 53.6133 95 89.2319 95 133.17C95 177.107 130.682 212.726 174.699 212.726Z" stroke="white" stroke-width="1.5" stroke-miterlimit="10"/>
<path d="M128.004 236.39C164.12 236.39 193.398 207.164 193.398 171.113C193.398 135.062 164.12 105.836 128.004 105.836C91.8874 105.836 62.6094 135.062 62.6094 171.113C62.6094 207.164 91.8874 236.39 128.004 236.39Z" stroke="white" stroke-width="1.5" stroke-miterlimit="10"/>
<path d="M155.089 204.996C183.305 204.996 206.178 182.163 206.178 153.998C206.178 125.833 183.305 103 155.089 103C126.873 103 104 125.833 104 153.998C104 182.163 126.873 204.996 155.089 204.996Z" stroke="#4E4BD3" stroke-width="1.5" stroke-miterlimit="10"/>
<path d="M154.828 204.973C176.272 204.973 193.656 187.621 193.656 166.215C193.656 144.81 176.272 127.457 154.828 127.457C133.384 127.457 116 144.81 116 166.215C116 187.621 133.384 204.973 154.828 204.973Z" fill="#DBFE02"/>
</g>
</svg>
