<svg width="320" height="290" viewBox="0 0 320 290" fill="none" xmlns="http://www.w3.org/2000/svg">
<path d="M166.902 203.062C208.385 199.273 238.932 162.456 235.13 120.829C231.328 79.202 194.617 48.5278 153.134 52.3164C111.651 56.1051 81.1038 92.9219 84.9056 134.549C88.7074 176.176 125.418 206.85 166.902 203.062Z" stroke="white" stroke-width="1.5" stroke-miterlimit="10"/>
<path d="M86.2109 223.847L111.827 151.352L159.712 192.112L97.8995 237.005L91.9244 231.12L86.2109 223.847Z" stroke="#4E4BD3" stroke-width="1.5" stroke-miterlimit="10"/>
<path d="M94.5532 238.671C99.8716 238.186 103.788 233.466 103.3 228.129C102.813 222.792 98.1065 218.859 92.7882 219.345C87.4698 219.831 83.5536 224.551 84.041 229.888C84.5284 235.225 89.2349 239.157 94.5532 238.671Z" fill="#DBFE02"/>
<path d="M143.381 199.137C161.463 197.486 174.778 181.437 173.121 163.292C171.464 145.147 155.462 131.776 137.38 133.427C119.297 135.079 105.982 151.127 107.639 169.272C109.297 187.418 125.299 200.788 143.381 199.137Z" fill="#DBFE02"/>
</svg>
