<svg width="91" height="86" viewBox="0 0 91 86" fill="none" xmlns="http://www.w3.org/2000/svg">
<path d="M44.89 18.2979V1.12891C44.89 0.852764 45.1139 0.628906 45.39 0.628906C45.6661 0.628906 45.89 0.852764 45.89 1.12891V18.2979C45.8897 18.5738 45.666 18.7979 45.39 18.7979C45.114 18.7979 44.8903 18.5738 44.89 18.2979Z" fill="#4E4BD3"/>
<path d="M17.5996 47.8374L17.7012 47.8471C17.9289 47.8939 18.0996 48.0959 18.0996 48.3374C18.0996 48.5789 17.9289 48.7809 17.7012 48.8276L17.5996 48.8374H0.5C0.223858 48.8374 0 48.6135 0 48.3374C0 48.0612 0.223858 47.8374 0.5 47.8374H17.5996Z" fill="#4E4BD3"/>
<path d="M90.2696 47.8374L90.3712 47.8471C90.5989 47.8939 90.7696 48.0959 90.7696 48.3374C90.7696 48.5789 90.5989 48.7809 90.3712 48.8276L90.2696 48.8374H73.17C72.8939 48.8374 72.67 48.6135 72.67 48.3374C72.67 48.0612 72.8939 47.8374 73.17 47.8374H90.2696Z" fill="#4E4BD3"/>
<path d="M11.9675 16.1153C12.1388 15.9449 12.4026 15.9241 12.5964 16.0528L12.6745 16.1172L24.7741 28.2657C24.9689 28.4613 24.9687 28.7779 24.7731 28.9727C24.5775 29.1676 24.261 29.1664 24.0661 28.9708L11.9655 16.8223L11.902 16.7442C11.7741 16.5498 11.7962 16.2859 11.9675 16.1153Z" fill="#4E4BD3"/>
<path d="M77.1442 15.0488C77.338 14.9203 77.602 14.9408 77.7731 15.1113C77.9687 15.3061 77.9689 15.6227 77.7741 15.8183L65.6745 27.9668C65.4797 28.1623 65.1631 28.1633 64.9675 27.9687C64.7719 27.7739 64.7709 27.4573 64.9655 27.2617L77.0661 15.1132L77.1442 15.0488Z" fill="#4E4BD3"/>
<path d="M52.4702 71.4966L52.562 71.5064C52.7691 71.5489 52.9252 71.7319 52.9252 71.9517C52.9252 72.1714 52.7691 72.3544 52.562 72.397L52.4702 72.4068H38.31C38.0587 72.4068 37.8549 72.203 37.8549 71.9517C37.8549 71.7004 38.0587 71.4966 38.31 71.4966H52.4702Z" fill="#4E4BD3"/>
<path d="M52.4702 78.0024L52.562 78.0122C52.7691 78.0547 52.9252 78.2377 52.9252 78.4575C52.9252 78.6772 52.7691 78.8602 52.562 78.9028L52.4702 78.9126H38.31C38.0587 78.9126 37.8549 78.7088 37.8549 78.4575C37.8549 78.2062 38.0587 78.0024 38.31 78.0024H52.4702Z" fill="#4E4BD3"/>
<path d="M50.7001 84.5083L50.7919 84.5181C50.9991 84.5606 51.1552 84.7436 51.1552 84.9634C51.1552 85.1832 50.9991 85.3662 50.7919 85.4087L50.7001 85.4185H40.08C39.8287 85.4185 39.6249 85.2147 39.6249 84.9634C39.6249 84.7121 39.8287 84.5083 40.08 84.5083H50.7001Z" fill="#4E4BD3"/>
<path d="M66.26 46.1987C66.26 34.6157 56.912 25.2329 45.3801 25.2329C33.8484 25.2329 24.51 34.6153 24.51 46.1987C24.51 54.2804 29.1003 61.2424 35.7834 64.7378L36.4358 65.0649L36.5227 65.1176C36.7079 65.2582 36.7755 65.5141 36.6711 65.7319C36.5666 65.9498 36.3245 66.0571 36.0989 66.0005L36.0041 65.9663L35.3196 65.6235C28.3234 61.964 23.51 54.6711 23.51 46.1987C23.51 34.0674 33.2918 24.2329 45.3801 24.2329C57.4681 24.2329 67.26 34.0672 67.26 46.1987C67.26 54.9446 62.1305 62.4335 54.7659 65.9663L54.6711 66.0005C54.4455 66.0571 54.2034 65.9498 54.0989 65.7319C53.9795 65.4829 54.0853 65.1843 54.3342 65.0649L54.9866 64.7378C61.6698 61.2424 66.26 54.2804 66.26 46.1987Z" fill="#4E4BD3"/>
</svg>
