<svg width="85" height="85" viewBox="0 0 85 85" fill="none" xmlns="http://www.w3.org/2000/svg">
<path d="M76.6604 42.1714C76.6604 23.1577 61.309 7.74756 42.3762 7.74756C23.4434 7.74768 8.09204 23.1578 8.09204 42.1714C8.09208 61.1848 23.4435 76.5951 42.3762 76.5952C61.309 76.5952 76.6604 61.1849 76.6604 42.1714ZM77.6604 42.1714C77.6604 61.7334 61.865 77.5952 42.3762 77.5952C22.8874 77.5951 7.09208 61.7333 7.09204 42.1714C7.09204 22.6093 22.8874 6.74768 42.3762 6.74756C61.865 6.74756 77.6604 22.6092 77.6604 42.1714Z" fill="#4E4BD3"/>
<path d="M84.1178 40.1709V44.1709H72.3629V40.1709H84.1178Z" fill="white"/>
<path d="M12.6299 40.1709V44.1709H0.875V40.1709H12.6299Z" fill="white"/>
<path d="M44.3764 0.503906V12.3057H40.3764V0.503906H44.3764Z" fill="white"/>
<path d="M44.3764 72.0366V84.0796H40.3764V72.0366H44.3764Z" fill="white"/>
<path d="M84.1177 41.6714V42.6714H72.3628V41.6714H84.1177Z" fill="#4E4BD3"/>
<path d="M12.6299 41.6714V42.6714H0.875V41.6714H12.6299Z" fill="#4E4BD3"/>
<path d="M42.8763 0.503906V12.3057H41.8763V0.503906H42.8763Z" fill="#4E4BD3"/>
<path d="M42.8763 72.0371V84.0801H41.8763V72.0371H42.8763Z" fill="#4E4BD3"/>
<path d="M61.3074 42.1709C61.3073 31.6708 52.8301 23.1623 42.3768 23.1621C31.9233 23.1621 23.4453 31.6707 23.4451 42.1709C23.4451 52.6712 31.9232 61.1807 42.3768 61.1807C52.8302 61.1805 61.3074 52.6711 61.3074 42.1709ZM62.3074 42.1709C62.3074 53.2196 53.3862 62.1805 42.3768 62.1807C31.3672 62.1807 22.4451 53.2198 22.4451 42.1709C22.4453 31.1222 31.3673 22.1621 42.3768 22.1621C53.3861 22.1623 62.3073 31.1223 62.3074 42.1709Z" fill="#4E4BD3"/>
</svg>
