<svg width="86" height="78" viewBox="0 0 86 78" fill="none" xmlns="http://www.w3.org/2000/svg">
<path d="M42.9622 45.2361L61.8196 23.6326L62.5735 24.2908L42.9846 46.7312L22.1516 24.3016L22.884 23.6219L42.9622 45.2361Z" fill="#4E4BD3"/>
<path d="M49.657 6.38455C58.0031 -2.07494 70.8727 -1.93842 79.073 6.79373L79.4568 7.21267C87.3846 16.0876 87.2563 29.9396 79.073 38.6541L79.074 38.6551C66.9978 51.522 55.1693 64.1399 43.3416 77.0047L42.9744 77.4041L7.11695 38.6531C-0.935014 30.0757 -1.43882 16.4887 6.11365 7.60262L6.08277 7.63552L6.87281 6.79373C15.0732 -1.93846 27.9437 -2.07497 36.2898 6.38455L36.6834 6.79373L36.6853 6.79568L42.9734 13.576L49.2615 6.79568L49.2634 6.79373L49.657 6.38455ZM78.3445 7.4783C70.4091 -0.971797 57.9274 -0.971797 49.9919 7.4783L49.991 7.47732L42.9734 15.0467L35.9548 7.47732C28.2928 -0.681618 16.5935 -0.96117 8.63941 6.63552L7.84839 7.4783C0.0206699 15.814 -0.101205 29.0804 7.48218 37.5701L7.84839 37.9705L7.85132 37.9734L42.9724 75.9285C54.6817 63.1976 66.3934 50.7042 78.3445 37.9705L78.7117 37.5701C86.1745 29.2151 86.1745 16.2336 78.7117 7.87869L78.3445 7.4783Z" fill="#4E4BD3"/>
<path d="M64.4145 9.85281C67.1133 9.85281 69.5543 11.0115 71.7309 13.0462L72.1626 13.4641L72.1802 13.4837C76.7866 18.6224 76.7866 26.8274 72.1802 31.9661L72.1753 31.972L43.4663 63.052L14.4077 32.1331L14.2592 31.9661C9.65285 26.8274 9.6529 18.6224 14.2592 13.4837C16.3195 11.1578 19.1627 9.85282 22.0249 9.85281C24.7237 9.85281 27.1646 11.0114 29.3413 13.0462L29.7729 13.4641L29.7788 13.47L29.7846 13.4768L43.2192 27.928L56.6548 13.4768C58.7145 11.1551 61.5551 9.85287 64.4145 9.85281ZM64.4145 10.8528C61.8557 10.8529 59.2787 12.0221 57.396 14.1487L57.3872 14.1575L43.2202 29.3977L29.0639 14.1702L28.6587 13.7766C26.6187 11.8692 24.4092 10.8528 22.0249 10.8528C19.466 10.8528 16.8881 12.022 15.0053 14.1487L15.0034 14.1507C10.786 18.8555 10.6278 26.2314 14.7494 31L43.4663 61.5774L71.4409 31.2932C75.6978 26.5385 75.7 18.9223 71.4477 14.1643C69.2974 12.0075 66.9554 10.8528 64.4145 10.8528Z" fill="#4E4BD3"/>
</svg>
