<svg width="39" height="39" viewBox="0 0 39 39" fill="none" xmlns="http://www.w3.org/2000/svg">
<path d="M10.9883 26.7929H14.6397V14.6225H10.9883V26.7929ZM25.2136 14.2009C23.4415 14.2009 21.8559 14.8481 20.7311 16.2765V14.5824H17.0662V26.7931H20.7311V20.1899C20.7311 18.7944 22.0096 17.433 23.611 17.433C25.2124 17.433 25.6073 18.7944 25.6073 20.1557V26.7919H29.2586V19.884C29.2585 15.0857 26.9869 14.2009 25.2136 14.2009ZM12.7969 13.4062C13.8061 13.4062 14.6251 12.5872 14.6251 11.578C14.6251 10.5689 13.8061 9.75 12.7969 9.75C11.7878 9.75 10.9688 10.569 10.9688 11.5782C10.9688 12.5873 11.7878 13.4062 12.7969 13.4062Z" fill="#4E4BD3"/>
</svg>
