<svg width="508" height="299" viewBox="0 0 508 299" fill="none" xmlns="http://www.w3.org/2000/svg">
<path d="M241.571 119.21L250.371 70.5901C254.171 44.1801 275.981 24.3702 302.191 24.3702H323.801C332.401 24.3702 339.611 16.7702 339.611 7.16016V3.16016H369.621V6.96016C369.621 32.9702 349.211 54.1802 323.801 54.1802H302.191C291.391 54.1802 282.381 62.3801 280.381 73.5901L275.581 100.2L270.781 126.61C267.381 143.22 252.571 155.62 234.961 155.62C217.351 155.62 202.351 142.81 199.141 126.01L190.941 80.5901L219.551 70.1902L228.351 119.01L228.551 120.21C229.151 123.21 231.751 125.41 234.951 125.41C238.151 125.41 240.751 123.41 241.351 120.41L241.551 119.21H241.571Z" fill="#4E4BD3"/>
<path d="M138.281 23.6602L108.851 34.3702V153.52H138.281V23.6602Z" fill="#4E4BD3"/>
<path d="M150.171 153.52H179.261V71.4702L150.171 82.0602V153.52Z" fill="#4E4BD3"/>
<path d="M52.3109 95.5802C62.0409 95.5802 69.5309 102.92 69.5309 112.48C69.5309 122.04 62.0309 129.38 52.3109 129.38C42.5909 129.38 34.9309 122.05 34.9309 112.48C34.9309 102.91 42.4309 95.5802 52.3109 95.5802ZM46.5709 155.69C53.5909 155.69 62.3609 153.3 68.7309 147.24V153.3H96.6309V67.6702L69.0409 78.0302C62.6609 71.4902 53.8909 69.2602 47.3609 69.2602C22.9609 69.2602 6.22094 89.3502 6.22094 113.11C6.22094 135.59 22.3209 155.68 46.5609 155.68" fill="#4E4BD3"/>
<path d="M163.921 57.2002C172.961 57.2002 180.291 49.8702 180.291 40.8302C180.291 31.7902 172.961 24.4602 163.921 24.4602C154.881 24.4602 147.551 31.7902 147.551 40.8302C147.551 49.8702 154.881 57.2002 163.921 57.2002Z" fill="#4E4BD3"/>
<path d="M376.031 97.4002C376.031 113.81 362.821 127.01 346.421 127.01C341.421 127.01 336.821 125.81 332.611 123.61C341.811 118.41 348.021 108.6 348.021 97.4002C348.021 80.7902 334.611 67.3902 318.011 67.3902C301.411 67.3902 288.001 80.8002 288.001 97.4002C288.001 129.61 314.211 156.03 346.631 156.03H347.031C379.041 155.83 405.061 129.62 405.061 97.4002H376.031ZM317.681 103.38C314.481 103.38 311.881 100.78 311.881 97.5802C311.881 94.3802 314.481 91.7802 317.681 91.7802C320.881 91.7802 323.481 94.3802 323.481 97.5802C323.481 100.78 320.881 103.38 317.681 103.38Z" fill="#4E4BD3"/>
<path d="M130.991 266.12C121.171 266.12 113.761 259.2 113.761 249.05C113.761 238.9 121.161 232.31 130.991 232.31C139.511 232.31 144.971 236.96 147.231 244.02L173.661 234.4C164.461 212.86 146.861 205.58 130.021 205.58C103.291 205.58 84.3009 224.58 84.3009 249.05C84.3009 273.52 103.301 292.84 130.021 292.84C147.251 292.84 166.571 284.31 174.141 262.89L147.901 254.68C144.841 262.09 139.531 266.11 130.991 266.11" fill="#4E4BD3"/>
<path d="M234.031 205.58C222.921 205.58 214.871 209.28 209.881 214.92V160.26L180.251 171.04V290.42H209.881V248.24C209.881 239.22 214.071 231.98 223.891 231.98C231.941 231.98 236.771 236.49 236.771 245.82V290.42H266.391V239.22C266.391 219.26 255.281 205.57 234.031 205.57" fill="#4E4BD3"/>
<path d="M416.121 266.12C406.461 266.12 398.731 258.71 398.731 249.21C398.731 239.71 406.461 232.14 416.121 232.14C425.781 232.14 433.671 239.71 433.671 249.05C433.671 258.39 425.941 266.12 416.121 266.12ZM416.121 205.58C390.841 205.58 369.751 224.58 369.751 249.37C369.751 274.16 390.201 292.84 416.121 292.84C442.041 292.84 462.651 273.84 462.651 249.05C462.651 224.26 441.561 205.58 416.121 205.58Z" fill="#4E4BD3"/>
<path d="M319.681 266.12C310.021 266.12 302.291 258.71 302.291 249.21C302.291 239.71 310.021 232.14 319.681 232.14C329.341 232.14 337.231 239.71 337.231 249.05C337.231 258.39 329.501 266.12 319.681 266.12ZM319.681 205.58C294.401 205.58 273.311 224.58 273.311 249.37C273.311 274.16 293.761 292.84 319.681 292.84C345.601 292.84 366.211 273.84 366.211 249.05C366.211 224.26 345.121 205.58 319.681 205.58Z" fill="#4E4BD3"/>
<path d="M469.381 170.78V290.43H499.001V160L469.381 170.78Z" fill="#4E4BD3"/>
<path d="M50.4709 237.13C37.3809 233.78 34.9909 232.66 34.9909 229.63C34.9909 227.24 37.0709 225.64 41.6909 225.64C47.3009 225.64 52.1009 228.08 55.5409 231.73L77.6709 223.46L77.7609 223.4C70.9009 212.87 58.7709 206 42.4909 206C20.4609 206 6.10094 216.85 6.10094 233.13C6.10094 245.26 12.9609 254.68 33.7109 259.63C50.1509 263.46 51.9009 263.94 51.9009 267.45C51.9009 270.32 48.2309 271.76 42.9609 271.76C36.8709 271.76 31.0209 269.5 26.5309 264.35L3.24094 273.02L3.21094 273.04C10.7109 287.4 27.9509 292.67 42.4809 292.67C65.1409 292.67 79.9909 281.82 79.9909 265.22C79.9909 252.61 72.3309 242.72 50.4609 237.13" fill="#4E4BD3"/>
</svg>
