<svg width="115" height="68" viewBox="0 0 115 68" fill="none" xmlns="http://www.w3.org/2000/svg">
<path d="M31.2752 4.74965L24.4641 7.28907V35.3167H31.2752V4.74965Z" fill="#DBFE02"/>
<path d="M34.0088 35.3167H40.7735V15.9889L34.0088 18.4813V35.3167Z" fill="#DBFE02"/>
<path d="M29.5609 61.7455C27.2905 61.7455 25.5762 60.0996 25.5762 57.7483C25.5762 55.397 27.2905 53.7981 29.5609 53.7981C31.8312 53.7981 32.8042 54.8797 33.3139 56.5256L39.4299 54.2683C37.2986 49.1895 33.2212 47.4965 29.3292 47.4965C23.1205 47.4965 18.7651 51.964 18.7651 57.7012C18.7651 63.4384 23.1668 68 29.3292 68C35.4916 68 37.8083 65.9779 39.5226 60.9461L33.4529 59.018C32.7579 60.758 31.5069 61.6985 29.5609 61.6985" fill="#DBFE02"/>
<path d="M53.4227 47.4965C50.8744 47.4965 48.9747 48.343 47.8164 49.7068V36.8686L40.959 39.408V67.4357H47.8164V57.5131C47.8164 55.397 48.7894 53.704 51.0597 53.704C53.3301 53.704 54.0251 54.7856 54.0251 56.9488V67.4357H60.8824V55.397C60.8824 50.6943 58.3341 47.4965 53.3764 47.4965" fill="#DBFE02"/>
<path d="M95.5863 61.7455C93.3623 61.7455 91.5553 60.0055 91.5553 57.7953C91.5553 55.5851 93.3623 53.7981 95.5863 53.7981C97.8103 53.7981 99.6637 55.5851 99.6637 57.7483C99.6637 59.9115 97.8567 61.7455 95.5863 61.7455ZM95.5863 47.4965C89.7483 47.4965 84.8369 51.964 84.8369 57.7953C84.8369 63.6266 89.5629 68 95.5863 68C101.61 68 106.336 63.5325 106.336 57.7012C106.336 51.87 101.471 47.4965 95.5863 47.4965Z" fill="#DBFE02"/>
<path d="M73.2533 61.7455C71.0293 61.7455 69.2223 60.0055 69.2223 57.7953C69.2223 55.5851 71.0293 53.7981 73.2533 53.7981C75.4773 53.7981 77.3307 55.5851 77.3307 57.7483C77.3307 59.9115 75.5237 61.7455 73.2533 61.7455ZM73.2533 47.4965C67.4153 47.4965 62.5039 51.964 62.5039 57.7953C62.5039 63.6266 67.2299 68 73.2533 68C79.2767 68 84.0027 63.5325 84.0027 57.7012C84.0027 51.87 79.1377 47.4965 73.2533 47.4965Z" fill="#DBFE02"/>
<path d="M108.143 39.361V67.4357H115V36.8216L108.143 39.361Z" fill="#DBFE02"/>
<path d="M11.3518 21.6791C13.6221 21.6791 15.3365 23.4191 15.3365 25.6763C15.3365 27.9336 13.6221 29.6736 11.3518 29.6736C9.08145 29.6736 7.32077 27.9336 7.32077 25.6763C7.32077 23.4191 9.03512 21.6791 11.3518 21.6791ZM10.0081 35.787C11.6298 35.787 13.6685 35.2227 15.1512 33.8119V35.2227H21.6379V15.0954L15.2438 17.5408C13.7611 15.9889 11.7225 15.4716 10.2398 15.4716C4.58709 15.4716 0.695068 20.1743 0.695068 25.7704C0.695068 31.3665 4.44809 35.787 10.0545 35.787" fill="#DBFE02"/>
<path d="M37.3912 12.509C39.4762 12.509 41.1905 10.769 41.1905 8.65284C41.1905 6.53665 39.4762 4.79668 37.3912 4.79668C35.3061 4.79668 33.5918 6.53665 33.5918 8.65284C33.5918 10.769 35.3061 12.509 37.3912 12.509Z" fill="#DBFE02"/>
<path d="M10.9347 54.9267C7.92305 54.1272 7.36704 53.8921 7.36704 53.1867C7.36704 52.4813 7.83038 52.2462 8.89605 52.2462C9.96173 52.2462 11.3054 52.8105 12.0931 53.657L17.2361 51.7289C15.6608 49.2365 12.8344 47.6376 9.08139 47.6376C5.32836 47.6376 0.64867 50.177 0.64867 53.9862C0.64867 57.7953 2.22401 59.065 7.04271 60.1936C10.8421 61.0871 11.2591 61.2282 11.2591 62.0277C11.2591 62.8271 10.4251 63.0622 9.17405 63.0622C7.92305 63.0622 6.39404 62.5449 5.3747 61.3223L0 63.3444C1.71434 66.7303 5.74537 67.953 9.08139 67.953C14.3171 67.953 17.7458 65.4136 17.7458 61.5104C17.7458 57.6072 15.9851 56.2434 10.8884 54.9267" fill="#DBFE02"/>
<path d="M77.933 0V0.940526C77.933 3.19779 76.265 4.98479 74.2726 4.98479H69.2686C63.1989 4.98479 58.1486 9.64039 57.2682 15.8479L55.2295 27.2752V27.5574C55.0905 28.2628 54.4882 28.7331 53.7469 28.7331C53.0055 28.7331 52.4032 28.2158 52.2642 27.5104V27.2282L50.1792 15.7538L43.5535 18.1992L45.4531 28.8741C46.1945 32.8243 49.6695 35.834 53.7469 35.834C57.8242 35.834 61.2529 32.9184 62.0406 29.0152L63.1526 22.8077L64.2646 16.5533C64.7279 13.9198 66.8129 11.9917 69.315 11.9917H74.319C80.2033 11.9917 84.9294 7.00692 84.9294 0.893499V0H77.933Z" fill="#DBFE02"/>
<path d="M86.3658 22.1494C86.3658 26.0055 83.3078 29.1093 79.5084 29.1093C78.3501 29.1093 77.2844 28.8271 76.3114 28.3098C78.4427 27.0871 79.8791 24.7828 79.8791 22.1494C79.8791 18.2462 76.7747 15.0954 72.929 15.0954C69.0834 15.0954 65.979 18.2462 65.979 22.1494C65.979 29.7206 72.0487 35.9281 79.5547 35.9281C87.0608 35.9281 79.6011 35.9281 79.6474 35.9281C87.0608 35.9281 93.0842 29.7206 93.0842 22.1494H86.3658ZM74.0874 22.7137C73.902 23.231 73.3924 23.5602 72.8364 23.5602C72.2804 23.5602 71.4927 22.9488 71.4927 22.1964C71.4927 21.444 72.095 20.8326 72.8364 20.8326C73.5777 20.8326 73.0217 20.8326 73.1144 20.8326C73.7167 20.9267 74.2264 21.491 74.2264 22.1494C74.2264 22.8077 74.2264 22.5256 74.0874 22.7137Z" fill="#DBFE02"/>
</svg>
