<svg width="224" height="370" viewBox="0 0 224 370" fill="none" xmlns="http://www.w3.org/2000/svg">
<path d="M201.304 27.5983C201.304 14.08 190.329 3.1142 176.798 3.1142H46.472C32.9408 3.1142 21.9657 14.08 21.9657 27.5983C21.9659 41.1164 32.941 52.0813 46.472 52.0813H176.798C190.329 52.0813 201.304 41.1164 201.304 27.5983ZM204.307 27.5983C204.307 42.7743 191.987 55.0823 176.798 55.0823H46.472C31.283 55.0823 18.9629 42.7743 18.9626 27.5983C18.9626 12.4221 31.2828 0.113281 46.472 0.113281H176.798C191.987 0.113281 204.307 12.4221 204.307 27.5983Z" fill="#4E4BD3"/>
<path d="M220.114 236.23C220.114 214.616 202.592 197.11 180.958 197.11H42.2753C20.6418 197.11 3.12024 214.616 3.12024 236.23V244.74H220.114V236.23ZM223.117 247.741H0.117188V236.23C0.117188 212.958 18.9838 194.109 42.2753 194.109H180.958C204.25 194.109 223.117 212.958 223.117 236.23V247.741Z" fill="#4E4BD3"/>
<path d="M53.3266 55.4251V196.405H50.3236V55.4251H53.3266Z" fill="#4E4BD3"/>
<path d="M172.91 55.4251V196.405H169.907V55.4251H172.91Z" fill="#4E4BD3"/>
<path d="M113.118 246.276V369.113H110.115V246.276H113.118Z" fill="#4E4BD3"/>
</svg>
